<svg width="20" height="21" viewBox="0 0 20 21" fill="none" xmlns="http://www.w3.org/2000/svg">
<g clip-path="url(#clip0_640_1373)">
<path d="M8.15546 8.84681C7.41244 8.84681 6.68612 8.62641 6.0684 8.21349C5.45069 7.80058 4.96933 7.21372 4.68525 6.52715C4.40116 5.84059 4.32711 5.08519 4.47247 4.35653C4.61783 3.62787 4.97607 2.95871 5.50185 2.43371C6.02763 1.9087 6.69732 1.55146 7.42619 1.40718C8.15507 1.2629 8.91036 1.33807 9.5965 1.62317C10.2826 1.90827 10.8688 2.39049 11.2808 3.00882C11.6928 3.62715 11.9121 4.35379 11.911 5.09681C11.9081 6.09143 11.5113 7.04439 10.8075 7.74717C10.1036 8.44996 9.15008 8.84534 8.15546 8.84681ZM8.15546 2.45236C7.63243 2.45236 7.12116 2.60746 6.68628 2.89803C6.2514 3.18861 5.91246 3.60161 5.71231 4.08482C5.51216 4.56803 5.45979 5.09974 5.56182 5.61271C5.66386 6.12568 5.91572 6.59688 6.28555 6.96671C6.65538 7.33654 7.12658 7.5884 7.63955 7.69044C8.15252 7.79247 8.68423 7.74011 9.16744 7.53995C9.65065 7.3398 10.0637 7.00086 10.3542 6.56598C10.6448 6.1311 10.7999 5.61983 10.7999 5.09681C10.7999 4.39546 10.5213 3.72283 10.0254 3.2269C9.52943 2.73097 8.85681 2.45236 8.15546 2.45236Z" fill="#5D6679"/>
<path d="M9.12244 18.2191C9.00102 18.0976 8.90736 17.9513 8.8479 17.7902C8.78844 17.6291 8.76459 17.457 8.778 17.2858H2.22244V14.0747C3.00995 13.2338 3.96536 12.5679 5.02673 12.12C6.08811 11.6721 7.23176 11.4522 8.38355 11.4747H8.78355C8.75805 11.2884 8.77586 11.0988 8.8356 10.9205C8.89535 10.7422 8.9954 10.5802 9.128 10.4469L9.19466 10.3858C8.93355 10.3858 8.63911 10.3524 8.38355 10.3524C7.02822 10.3203 5.68267 10.5897 4.4442 11.1412C3.20573 11.6927 2.10529 12.5125 1.22244 13.5413C1.15032 13.6375 1.11133 13.7544 1.11133 13.8747V17.2858C1.11133 17.5804 1.22839 17.8631 1.43677 18.0714C1.64514 18.2798 1.92775 18.3969 2.22244 18.3969H9.278L9.12244 18.2191Z" fill="#5D6679"/>
<path d="M18.7113 13.5748L17.6002 13.2359C17.5208 12.9641 17.4128 12.7015 17.278 12.4526L17.8335 11.4192C17.8516 11.3779 17.856 11.3319 17.846 11.2879C17.836 11.2439 17.8121 11.2043 17.778 11.1748L16.9724 10.3692C16.942 10.3363 16.9013 10.3145 16.8569 10.3074C16.8126 10.3004 16.7672 10.3084 16.728 10.3303L15.7058 10.8859C15.4543 10.7438 15.1879 10.6301 14.9113 10.547L14.5724 9.4359C14.558 9.395 14.5308 9.35988 14.4947 9.33584C14.4586 9.31179 14.4157 9.30011 14.3724 9.30257H13.2335C13.1898 9.30206 13.1471 9.31591 13.112 9.342C13.0768 9.36809 13.0512 9.40498 13.0391 9.44701L12.7002 10.5581C12.4219 10.6391 12.1536 10.7509 11.9002 10.8915L10.8891 10.3359C10.8507 10.3144 10.8062 10.3066 10.7629 10.3136C10.7195 10.3207 10.6798 10.3423 10.6502 10.3748L9.82798 11.1748C9.79749 11.2069 9.77787 11.2478 9.77189 11.2916C9.7659 11.3355 9.77386 11.3801 9.79464 11.4192L10.3502 12.4303C10.2034 12.6808 10.0859 12.9474 10.0002 13.2248L8.88909 13.5581C8.84706 13.5703 8.81017 13.5959 8.78408 13.631C8.75799 13.6661 8.74414 13.7088 8.74464 13.7526V14.8915C8.74793 14.9316 8.76358 14.9697 8.78946 15.0006C8.81533 15.0314 8.85014 15.0535 8.88909 15.0637L10.0002 15.4026C10.0823 15.6751 10.1941 15.9378 10.3335 16.1859L9.77798 17.247C9.75678 17.285 9.74856 17.3289 9.75458 17.372C9.76059 17.4152 9.78051 17.4551 9.81131 17.4859L10.6169 18.2915C10.6483 18.3228 10.6889 18.3435 10.7328 18.3505C10.7767 18.3575 10.8217 18.3504 10.8613 18.3303L11.9002 17.7748C12.1473 17.9081 12.408 18.0143 12.678 18.0915L13.0113 19.2026C13.025 19.2437 13.051 19.2796 13.0858 19.3054C13.1205 19.3313 13.1624 19.3458 13.2058 19.347H14.3446C14.3882 19.3466 14.4305 19.3324 14.4654 19.3065C14.5003 19.2805 14.5261 19.2441 14.5391 19.2026L14.878 18.0637C15.1441 17.9858 15.4011 17.8796 15.6446 17.747L16.6946 18.3026C16.7332 18.3231 16.7775 18.3304 16.8206 18.3234C16.8638 18.3163 16.9034 18.2954 16.9335 18.2637L17.778 17.5081C17.8007 17.4755 17.8128 17.4367 17.8128 17.397C17.8128 17.3573 17.8007 17.3185 17.778 17.2859L17.2224 16.2415C17.3573 15.9964 17.4653 15.7375 17.5446 15.4692L18.6558 15.1303C18.6978 15.1182 18.7347 15.0926 18.7608 15.0575C18.7869 15.0224 18.8007 14.9796 18.8002 14.9359V13.7692C18.8053 13.7317 18.7997 13.6936 18.7839 13.6591C18.7682 13.6247 18.743 13.5955 18.7113 13.5748ZM13.8058 16.1748C13.4383 16.1759 13.0788 16.0679 12.7728 15.8644C12.4668 15.6609 12.2281 15.3712 12.087 15.0319C11.9458 14.6926 11.9086 14.3191 11.98 13.9586C12.0515 13.5981 12.2283 13.267 12.4881 13.0072C12.748 12.7473 13.0791 12.5705 13.4396 12.4991C13.8 12.4277 14.1736 12.4649 14.5129 12.606C14.8521 12.7471 15.1419 12.9858 15.3454 13.2918C15.5488 13.5978 15.6569 13.9573 15.6558 14.3248C15.6543 14.815 15.4589 15.2847 15.1123 15.6313C14.7657 15.9779 14.296 16.1733 13.8058 16.1748Z" fill="#5D6679"/>
</g>
<defs>
<clipPath id="clip0_640_1373">
<rect width="20" height="20" fill="white" transform="translate(0 0.619141)"/>
</clipPath>
</defs>
</svg>
