<svg width="32" height="31" viewBox="0 0 32 31" fill="none" xmlns="http://www.w3.org/2000/svg">
<path d="M11.7794 29.9999C13.1532 29.9999 14.2669 28.8328 14.2669 27.3932C14.2669 25.9536 13.1532 24.7866 11.7794 24.7866C10.4057 24.7866 9.29199 25.9536 9.29199 27.3932C9.29199 28.8328 10.4057 29.9999 11.7794 29.9999Z" stroke="#0C0C0C"/>
<path d="M23.3873 29.9999C24.7611 29.9999 25.8748 28.8328 25.8748 27.3932C25.8748 25.9536 24.7611 24.7866 23.3873 24.7866C22.0136 24.7866 20.8999 25.9536 20.8999 27.3932C20.8999 28.8328 22.0136 29.9999 23.3873 29.9999Z" stroke="#0C0C0C"/>
<path d="M1 1.32666H4.3166L10.1273 20.4418H23.387" stroke="#0C0C0C" stroke-linecap="round" stroke-linejoin="round"/>
<path d="M8.83363 16.0983L5.64307 5.67188H26.3834C26.5148 5.6717 26.6445 5.70429 26.7615 5.76693C26.8786 5.82958 26.9798 5.9205 27.0567 6.03219C27.1336 6.14387 27.1841 6.27313 27.204 6.40929C27.2239 6.54546 27.2126 6.68462 27.1711 6.81531L24.4067 15.504C24.3517 15.677 24.2463 15.8274 24.1052 15.9341C23.9641 16.0407 23.7946 16.0982 23.6207 16.0983H8.83363Z" stroke="#0C0C0C" stroke-linecap="round" stroke-linejoin="round"/>
<path d="M26.0972 10.3711C28.8586 10.3711 31.0972 8.13252 31.0972 5.37109C31.0972 2.60967 28.8586 0.371094 26.0972 0.371094C23.3357 0.371094 21.0972 2.60967 21.0972 5.37109C21.0972 8.13252 23.3357 10.3711 26.0972 10.3711Z" fill="#DF0909"/>
<path d="M26.1149 8.056C25.7322 8.056 25.3892 7.958 25.0859 7.762C24.7872 7.566 24.5492 7.28133 24.3719 6.908C24.1992 6.53467 24.1129 6.082 24.1129 5.55C24.1129 5.018 24.1992 4.56533 24.3719 4.192C24.5492 3.81867 24.7872 3.534 25.0859 3.338C25.3892 3.142 25.7322 3.044 26.1149 3.044C26.4929 3.044 26.8335 3.142 27.1369 3.338C27.4402 3.534 27.6782 3.81867 27.8509 4.192C28.0235 4.56533 28.1099 5.018 28.1099 5.55C28.1099 6.082 28.0235 6.53467 27.8509 6.908C27.6782 7.28133 27.4402 7.566 27.1369 7.762C26.8335 7.958 26.4929 8.056 26.1149 8.056ZM26.1149 7.433C26.3715 7.433 26.5955 7.363 26.7869 7.223C26.9829 7.083 27.1345 6.873 27.2419 6.593C27.3539 6.313 27.4099 5.96533 27.4099 5.55C27.4099 5.13467 27.3539 4.787 27.2419 4.507C27.1345 4.227 26.9829 4.017 26.7869 3.877C26.5955 3.737 26.3715 3.667 26.1149 3.667C25.8582 3.667 25.6319 3.737 25.4359 3.877C25.2399 4.017 25.0859 4.227 24.9739 4.507C24.8665 4.787 24.8129 5.13467 24.8129 5.55C24.8129 5.96533 24.8665 6.313 24.9739 6.593C25.0859 6.873 25.2399 7.083 25.4359 7.223C25.6319 7.363 25.8582 7.433 26.1149 7.433Z" fill="white"/>
</svg>
