<svg width="21" height="21" viewBox="0 0 21 21" fill="none" xmlns="http://www.w3.org/2000/svg">
<path d="M1.47619 1.14544V0.619141C1.3499 0.619141 1.22878 0.67459 1.13947 0.773291C1.05017 0.871992 1 1.00586 1 1.14544H1.47619ZM11.9524 1.14544H12.4286C12.4286 1.00586 12.3784 0.871992 12.2891 0.773291C12.1998 0.67459 12.0787 0.619141 11.9524 0.619141V1.14544ZM11.9524 7.46108V6.93478C11.8261 6.93478 11.705 6.99022 11.6157 7.08893C11.5264 7.18763 11.4762 7.32149 11.4762 7.46108H11.9524ZM1.47619 1.67175H11.9524V0.619141H1.47619V1.67175ZM11.4762 1.14544V17.9871H12.4286V1.14544H11.4762ZM1.95238 15.8819V1.14544H1V15.8819H1.95238ZM11.9524 7.98738H16.7143V6.93478H11.9524V7.98738ZM20.0476 11.6715V15.8819H21V11.6715H20.0476ZM12.4286 17.9871V7.46108H11.4762V17.9871H12.4286ZM17.7238 19.1029C17.456 19.3986 17.0929 19.5647 16.7143 19.5647C16.3357 19.5647 15.9726 19.3986 15.7048 19.1029L15.0305 19.8481C15.2516 20.0926 15.5141 20.2865 15.803 20.4188C16.0919 20.5511 16.4016 20.6191 16.7143 20.6191C17.027 20.6191 17.3367 20.5511 17.6256 20.4188C17.9145 20.2865 18.177 20.0926 18.3981 19.8481L17.7238 19.1029ZM15.7048 16.8714C15.9726 16.5757 16.3357 16.4096 16.7143 16.4096C17.0929 16.4096 17.456 16.5757 17.7238 16.8714L18.3981 16.1261C18.177 15.8817 17.9145 15.6878 17.6256 15.5555C17.3367 15.4232 17.027 15.3551 16.7143 15.3551C16.4016 15.3551 16.0919 15.4232 15.803 15.5555C15.5141 15.6878 15.2516 15.8817 15.0305 16.1261L15.7048 16.8714ZM6.29524 19.1029C6.02738 19.3986 5.66429 19.5647 5.28571 19.5647C4.90714 19.5647 4.54405 19.3986 4.27619 19.1029L3.6019 19.8481C3.823 20.0926 4.08551 20.2865 4.37442 20.4188C4.66333 20.5511 4.97299 20.6191 5.28571 20.6191C5.59844 20.6191 5.9081 20.5511 6.19701 20.4188C6.48592 20.2865 6.74842 20.0926 6.96952 19.8481L6.29524 19.1029ZM4.27619 16.8714C4.54405 16.5757 4.90714 16.4096 5.28571 16.4096C5.66429 16.4096 6.02738 16.5757 6.29524 16.8714L6.96952 16.1261C6.74842 15.8817 6.48592 15.6878 6.19701 15.5555C5.9081 15.4232 5.59844 15.3551 5.28571 15.3551C4.97299 15.3551 4.66333 15.4232 4.37442 15.5555C4.08551 15.6878 3.823 15.8817 3.6019 16.1261L4.27619 16.8714ZM17.7238 16.8714C18.0038 17.1787 18.1429 17.5819 18.1429 17.9871H19.0952C19.0952 17.3145 18.8629 16.6398 18.3981 16.1261L17.7238 16.8714ZM18.1429 17.9871C18.1429 18.3924 18.0038 18.7955 17.7238 19.1029L18.3981 19.8481C18.6192 19.6037 18.7945 19.3136 18.9141 18.9943C19.0338 18.675 19.0953 18.3327 19.0952 17.9871H18.1429ZM14.8095 17.4608H11.9524V18.5134H14.8095V17.4608ZM15.7048 19.1029C15.4368 18.8071 15.286 18.4057 15.2857 17.9871H14.3333C14.3333 18.6597 14.5657 19.3345 15.0305 19.8481L15.7048 19.1029ZM15.2857 17.9871C15.2857 17.5819 15.4248 17.1787 15.7048 16.8714L15.0305 16.1261C14.8094 16.3705 14.634 16.6607 14.5144 16.98C14.3948 17.2993 14.3333 17.6415 14.3333 17.9871H15.2857ZM4.27619 19.1029C4.0082 18.8071 3.85748 18.4057 3.85714 17.9871H2.90476C2.90476 18.6597 3.13714 19.3345 3.6019 19.8481L4.27619 19.1029ZM3.85714 17.9871C3.85714 17.5819 3.99619 17.1787 4.27619 16.8714L3.6019 16.1261C3.38083 16.3705 3.20547 16.6607 3.08586 16.98C2.96624 17.2993 2.9047 17.6415 2.90476 17.9871H3.85714ZM11.9524 17.4608H7.19048V18.5134H11.9524V17.4608ZM6.29524 16.8714C6.57524 17.1787 6.71429 17.5819 6.71429 17.9871H7.66667C7.66667 17.3145 7.43429 16.6398 6.96952 16.1261L6.29524 16.8714ZM6.71429 17.9871C6.71429 18.3924 6.57524 18.7955 6.29524 19.1029L6.96952 19.8481C7.1906 19.6037 7.36596 19.3136 7.48557 18.9943C7.60519 18.675 7.66673 18.3327 7.66667 17.9871H6.71429ZM20.0476 15.8819C20.0476 16.3007 19.8971 16.7023 19.6292 16.9984C19.3613 17.2945 18.9979 17.4608 18.619 17.4608V18.5134C19.2505 18.5134 19.8561 18.2362 20.3026 17.7427C20.7492 17.2492 21 16.5798 21 15.8819H20.0476ZM16.7143 7.98738C17.5983 7.98738 18.4462 8.37553 19.0713 9.06643C19.6964 9.75734 20.0476 10.6944 20.0476 11.6715H21C21 10.4152 20.5485 9.21044 19.7447 8.32213C18.941 7.43382 17.8509 6.93478 16.7143 6.93478V7.98738ZM1 15.8819C1 16.5798 1.25085 17.2492 1.69736 17.7427C2.14388 18.2362 2.74948 18.5134 3.38095 18.5134V17.4608C3.00207 17.4608 2.63871 17.2945 2.3708 16.9984C2.10289 16.7023 1.95238 16.3007 1.95238 15.8819H1Z" fill="#5D6679"/>
<path d="M1.47656 6.40796H4.33371M1.47656 10.6184H6.23847" stroke="#5D6679" stroke-width="1.5" stroke-linecap="round" stroke-linejoin="round"/>
</svg>
