<svg width="22" height="22" viewBox="0 0 22 22" fill="none" xmlns="http://www.w3.org/2000/svg">
<path d="M4.33333 10.6191H12.6667M4.33333 13.4763H16M4.33333 16.3334H9.33333M21 17.762V7.762L12.6667 0.619141H4.33333C3.44928 0.619141 2.60143 0.92016 1.97631 1.45598C1.35119 1.9918 1 2.71852 1 3.47628V17.762C1 18.5198 1.35119 19.2465 1.97631 19.7823C2.60143 20.3181 3.44928 20.6191 4.33333 20.6191H17.6667C18.5507 20.6191 19.3986 20.3181 20.0237 19.7823C20.6488 19.2465 21 18.5198 21 17.762Z" stroke="#5D6679" stroke-width="0.952381" stroke-linecap="round" stroke-linejoin="round"/>
<path d="M12.667 0.619141V4.90486C12.667 5.66262 13.0182 6.38934 13.6433 6.92516C14.2684 7.46098 15.1163 7.762 16.0003 7.762H21.0003" stroke="#5D6679" stroke-width="0.952381" stroke-linecap="round" stroke-linejoin="round"/>
</svg>
