<svg xmlns="http://www.w3.org/2000/svg" viewBox="0 0 24 24" fill="white" class="w-8 h-8 ">
  <path fill="white" d="M22.23 0H1.77C.79 0 0 .774 0 1.729v20.542C0 23.226.79 24 1.77 24h20.461C23.21 24 24 23.226 24 22.271V1.729C24 .774 23.21 0 22.23 0zM7.09 20.452H3.56V8.911h3.53v11.541zm-1.77-13.12c-1.13 0-2.042-.922-2.042-2.056 0-1.134.912-2.056 2.042-2.056s2.042.922 2.042 2.056c0 1.134-.912 2.056-2.042 2.056zM20.452 20.452h-3.529v-5.624c0-1.34-.022-3.065-1.865-3.065-1.865 0-2.152 1.454-2.152 2.957v5.732h-3.53V8.911h3.391v1.573h.049c.472-.898 1.624-1.846 3.344-1.846 3.575 0 4.233 2.353 4.233 5.411v6.403z"/>
</svg>
