<svg width="20" height="20" viewBox="0 0 20 20" fill="none" xmlns="http://www.w3.org/2000/svg">
<path fill-rule="evenodd" clip-rule="evenodd" d="M1.905 7.77778C2.01315 7.77778 2.11889 7.76889 2.22222 7.75111V12.2222H0.833334C0.759663 12.2222 0.689009 12.2515 0.636916 12.3036C0.584822 12.3557 0.555557 12.4263 0.555557 12.5V13.0556C0.555557 13.1292 0.584822 13.1999 0.636916 13.252C0.689009 13.3041 0.759663 13.3333 0.833334 13.3333H19.1667C19.2403 13.3333 19.311 13.3041 19.3631 13.252C19.4152 13.1999 19.4444 13.1292 19.4444 13.0556V12.5C19.4444 12.4263 19.4152 12.3557 19.3631 12.3036C19.311 12.2515 19.2403 12.2222 19.1667 12.2222H17.7778V7.75111C17.8815 7.76889 17.9872 7.77778 18.095 7.77778C19.1517 7.77778 20 6.91556 20 5.86167V4.53389C20.0004 4.35769 19.9697 4.18279 19.9094 4.01722L18.6983 0.678333C18.6265 0.479605 18.4951 0.307854 18.3221 0.186471C18.1492 0.0650889 17.943 -2.43163e-05 17.7317 6.81198e-09H2.26778C2.05658 0.000245303 1.85059 0.0655457 1.67783 0.187018C1.50506 0.30849 1.37391 0.480235 1.30222 0.678889L0.0911123 4.01722C0.0306257 4.18275 -0.000216318 4.35765 1.14196e-06 4.53389V5.86167C1.14196e-06 6.91556 0.848334 7.77778 1.905 7.77778ZM1.13556 4.39611L2.32722 1.11111H17.6722L18.8639 4.39611C18.8802 4.44056 18.8883 4.48648 18.8883 4.53389V5.86167C18.8897 6.07365 18.8068 6.27749 18.658 6.42843C18.5091 6.57937 18.3064 6.66505 18.0944 6.66667C17.6611 6.66667 17.3011 6.31111 17.3011 5.86167C17.3011 5.71432 17.2426 5.57302 17.1384 5.46883C17.0342 5.36464 16.8929 5.30611 16.7456 5.30611C16.5982 5.30611 16.4569 5.36464 16.3527 5.46883C16.2485 5.57302 16.19 5.71432 16.19 5.86167C16.1913 6.07365 16.1085 6.27749 15.9596 6.42843C15.8108 6.57937 15.6081 6.66505 15.3961 6.66667C14.9628 6.66667 14.6028 6.31111 14.6028 5.86222C14.6028 5.71488 14.5442 5.57357 14.4401 5.46939C14.3359 5.3652 14.1946 5.30667 14.0472 5.30667C13.8999 5.30667 13.7586 5.3652 13.6544 5.46939C13.5502 5.57357 13.4917 5.71488 13.4917 5.86222C13.4917 6.31111 13.1317 6.66667 12.6978 6.66667C12.2639 6.66667 11.9044 6.31111 11.9044 5.86167C11.9044 5.71432 11.8459 5.57302 11.7417 5.46883C11.6375 5.36464 11.4962 5.30611 11.3489 5.30611C11.2015 5.30611 11.0602 5.36464 10.9561 5.46883C10.8519 5.57302 10.7933 5.71432 10.7933 5.86167C10.7947 6.07356 10.7119 6.27732 10.5631 6.42824C10.4144 6.57916 10.2119 6.66491 10 6.66667C9.78811 6.66505 9.58553 6.57944 9.43669 6.42863C9.28785 6.27781 9.20493 6.07411 9.20611 5.86222C9.20611 5.71488 9.14758 5.57357 9.04339 5.46939C8.93921 5.3652 8.7979 5.30667 8.65055 5.30667C8.50321 5.30667 8.36191 5.3652 8.25772 5.46939C8.15353 5.57357 8.095 5.71488 8.095 5.86222C8.095 6.31111 7.73556 6.66667 7.30167 6.66667C6.86778 6.66667 6.50778 6.31111 6.50778 5.86167C6.50778 5.71432 6.44925 5.57302 6.34506 5.46883C6.24087 5.36464 6.09957 5.30611 5.95222 5.30611C5.80488 5.30611 5.66357 5.36464 5.55939 5.46883C5.4552 5.57302 5.39667 5.71432 5.39667 5.86167C5.39667 6.31056 5.03722 6.66667 4.60333 6.66667C4.16944 6.66667 3.80945 6.31111 3.80945 5.86167C3.80945 5.71432 3.75091 5.57302 3.64673 5.46883C3.54254 5.36464 3.40123 5.30611 3.25389 5.30611C3.10655 5.30611 2.96524 5.36464 2.86105 5.46883C2.75687 5.57302 2.69833 5.71432 2.69833 5.86167C2.69833 6.31056 2.33889 6.66667 1.905 6.66667C1.47056 6.66667 1.11111 6.31111 1.11111 5.86167V4.53389C1.11111 4.48611 1.11926 4.44019 1.13556 4.39611ZM16.6667 7.29C16.3186 7.60469 15.8659 7.77857 15.3967 7.77778C15.1457 7.77821 14.8971 7.72861 14.6655 7.63189C14.4339 7.53516 14.2239 7.39325 14.0478 7.21444C13.8716 7.39332 13.6615 7.53527 13.4298 7.63199C13.1981 7.72872 12.9494 7.77828 12.6983 7.77778C12.4473 7.77821 12.1988 7.72861 11.9672 7.63189C11.7356 7.53516 11.5256 7.39325 11.3494 7.21444C11.1732 7.39332 10.9631 7.53527 10.7314 7.63199C10.4997 7.72872 10.2511 7.77828 10 7.77778C9.74892 7.77828 9.50026 7.72872 9.26855 7.63199C9.03685 7.53527 8.82675 7.39332 8.65055 7.21444C8.47442 7.39325 8.26442 7.53516 8.03281 7.63189C7.80121 7.72861 7.55265 7.77821 7.30167 7.77778C6.77333 7.77778 6.29611 7.56167 5.95222 7.21444C5.77609 7.39325 5.56608 7.53516 5.33448 7.63189C5.10288 7.72861 4.85432 7.77821 4.60333 7.77778C4.11444 7.77778 3.67 7.59278 3.33333 7.29V12.2222H4.72222C4.64855 12.2222 4.5779 12.193 4.5258 12.1409C4.47371 12.0888 4.44444 12.0181 4.44444 11.9444V10.8333C4.44444 10.7597 4.47371 10.689 4.5258 10.6369C4.5779 10.5848 4.64855 10.5556 4.72222 10.5556H6.38889C6.46256 10.5556 6.53321 10.5848 6.58531 10.6369C6.6374 10.689 6.66667 10.7597 6.66667 10.8333V11.1111H7.5C7.57367 11.1111 7.64433 11.1404 7.69642 11.1925C7.74851 11.2446 7.77778 11.3152 7.77778 11.3889V11.9444C7.77778 12.0181 7.74851 12.0888 7.69642 12.1409C7.64433 12.193 7.57367 12.2222 7.5 12.2222H16.6667V7.29ZM1.11111 15C1.11111 14.8527 1.16964 14.7114 1.27383 14.6072C1.37802 14.503 1.51933 14.4444 1.66667 14.4444H18.3333C18.4807 14.4444 18.622 14.503 18.7262 14.6072C18.8304 14.7114 18.8889 14.8527 18.8889 15V19.4444C18.8889 19.5918 18.8304 19.7331 18.7262 19.8373C18.622 19.9415 18.4807 20 18.3333 20H1.66667C1.51933 20 1.37802 19.9415 1.27383 19.8373C1.16964 19.7331 1.11111 19.5918 1.11111 19.4444V15ZM2.22222 18.8889V15.5556H17.7778V18.8889H2.22222Z" fill="#404143"/>
</svg>
