<svg width="112" height="112" viewBox="0 0 112 112" fill="none" xmlns="http://www.w3.org/2000/svg">
<path d="M77 80.5H68.25C67.0897 80.5 65.9769 80.9609 65.1564 81.7814C64.3359 82.6019 63.875 83.7147 63.875 84.875C63.875 86.0353 64.3359 87.1481 65.1564 87.9686C65.9769 88.789 67.0897 89.25 68.25 89.25H77C78.1603 89.25 79.2731 88.789 80.0936 87.9686C80.9141 87.1481 81.375 86.0353 81.375 84.875C81.375 83.7147 80.9141 82.6019 80.0936 81.7814C79.2731 80.9609 78.1603 80.5 77 80.5ZM60.375 48.125C60.3764 49.2849 60.8377 50.3969 61.6579 51.2171C62.4781 52.0373 63.5901 52.4986 64.75 52.5H80.5C81.6603 52.5 82.7731 52.0391 83.5936 51.2186C84.4141 50.3981 84.875 49.2853 84.875 48.125C84.875 46.9647 84.4141 45.8519 83.5936 45.0314C82.7731 44.2109 81.6603 43.75 80.5 43.75H64.75C63.5901 43.7514 62.4781 44.2127 61.6579 45.0329C60.8377 45.8531 60.3764 46.9651 60.375 48.125ZM80.5 68.25H64.75C63.5897 68.25 62.4769 68.7109 61.6564 69.5314C60.8359 70.3519 60.375 71.4647 60.375 72.625C60.375 73.7853 60.8359 74.8981 61.6564 75.7186C62.4769 76.5391 63.5897 77 64.75 77H80.5C81.6603 77 82.7731 76.5391 83.5936 75.7186C84.4141 74.8981 84.875 73.7853 84.875 72.625C84.875 71.4647 84.4141 70.3519 83.5936 69.5314C82.7731 68.7109 81.6603 68.25 80.5 68.25Z" fill="#013299"/>
<path d="M56 112C67.0757 112 77.9027 108.716 87.1119 102.562C96.321 96.4089 103.499 87.6629 107.737 77.4303C111.976 67.1976 113.085 55.9379 110.924 45.0749C108.763 34.212 103.43 24.2338 95.5979 16.402C87.7662 8.5703 77.788 3.23682 66.925 1.07605C56.0621 -1.08472 44.8024 0.0242637 34.5697 4.26277C24.3371 8.50127 15.5911 15.6789 9.4377 24.8881C3.28434 34.0972 0 44.9243 0 56C0.0167094 70.847 5.92206 85.0811 16.4205 95.5795C26.9189 106.078 41.153 111.983 56 112ZM36.3387 21.2363L38.5 16.625L40.6612 21.2363L45.5 21.9713L42 25.5588L42.8225 30.625L38.5 28.2363L34.1775 30.625L35 25.5588L31.5 21.9713L36.3387 21.2363ZM23.625 47.3288C23.6157 45.9263 24.1633 44.5774 25.1476 43.5783C26.1319 42.5792 27.4725 42.0116 28.875 42H39.2787C40.0538 41.2719 40.8719 40.5911 41.7287 39.9613C42.8487 39.1125 43.9512 38.3338 45.0187 37.59C48.51 35.1313 51.5375 33.005 53.725 29.1988C55.4575 26.1975 55.1687 22.68 54.8625 18.9613C54.81 18.3138 54.7575 17.675 54.7137 17.0363C54.629 16.3546 54.7123 15.6626 54.9563 15.0206C55.2003 14.3785 55.5977 13.8058 56.1137 13.3525C57.5487 12.1538 59.85 11.9263 62.965 12.6875C64.5139 13.0696 65.9444 13.8288 67.1291 14.8974C68.3137 15.966 69.2158 17.311 69.7549 18.8125C71.995 24.2988 70.8137 31.6663 68.3724 35.7175C68.0487 36.5925 67.4624 38.885 68.2062 40.1275C68.2353 40.1664 68.2616 40.2074 68.2849 40.25H80.5C82.5876 40.2531 84.5888 41.0838 86.065 42.56C87.5411 44.0362 88.3718 46.0374 88.375 48.125C88.375 49.8892 87.7766 51.6013 86.6775 52.9813C88.1994 53.5289 89.5154 54.5328 90.4455 55.8561C91.3758 57.1794 91.8749 58.7575 91.8749 60.375C91.8749 61.9925 91.3758 63.5706 90.4455 64.8939C89.5154 66.2172 88.1994 67.2211 86.6775 67.7687C87.4515 68.7444 87.9819 69.8904 88.2246 71.1119C88.4674 72.3334 88.4156 73.5951 88.0734 74.7926C87.7313 75.9901 87.1087 77.0887 86.2573 77.9976C85.4059 78.9064 84.3501 79.5993 83.1775 80.0187C84.2766 81.3987 84.875 83.1108 84.875 84.875C84.8718 86.9626 84.0411 88.9638 82.565 90.44C81.0888 91.9161 79.0876 92.7468 77 92.75H68.25C66.1624 92.7468 64.1611 91.9161 62.685 90.44C61.2088 88.9638 60.3781 86.9626 60.375 84.875C60.3749 83.1108 60.9733 81.3987 62.0725 80.0187C60.8999 79.5993 59.8441 78.9064 58.9926 77.9976C58.1412 77.0887 57.5186 75.9901 57.1765 74.7926C56.8344 73.5951 56.7825 72.3334 57.0253 71.1119C57.2681 69.8904 57.7984 68.7444 58.5725 67.7687C57.0505 67.2211 55.7346 66.2172 54.8044 64.8939C53.8742 63.5706 53.375 61.9925 53.375 60.375C53.375 58.7575 53.8742 57.1794 54.8044 55.8561C55.7346 54.5328 57.0505 53.5289 58.5725 52.9813C57.4734 51.6013 56.8749 49.8892 56.875 48.125C56.879 46.0731 57.6828 44.1036 59.1157 42.6348C60.5485 41.166 62.4975 40.3136 64.5487 40.2588C64.1963 38.2505 64.4115 36.1838 65.17 34.2913C65.2078 34.1966 65.2547 34.1057 65.31 34.02C67.3137 30.8 68.285 24.4475 66.5175 20.1338C66.1812 19.1472 65.6043 18.2601 64.8388 17.5528C64.0734 16.8454 63.1437 16.3401 62.1337 16.0825C59.7887 15.5138 58.6687 15.785 58.3712 16.0388C58.205 16.17 58.1875 16.5288 58.2137 16.8088C58.2487 17.4213 58.3012 18.0425 58.3537 18.6725C58.6687 22.575 59.0275 27.0025 56.7612 30.9488C54.18 35.4288 50.7062 37.87 47.0312 40.4513C45.99 41.1863 44.9137 41.9388 43.8462 42.7525C42.8378 43.4423 41.9231 44.26 41.125 45.185V55.3875C41.125 55.8516 40.9406 56.2967 40.6124 56.6249C40.2842 56.9531 39.8391 57.1375 39.375 57.1375C38.9109 57.1375 38.4657 56.9531 38.1375 56.6249C37.8094 56.2967 37.625 55.8516 37.625 55.3875V45.5H28.875C28.4009 45.512 27.9508 45.711 27.623 46.0536C27.2951 46.3962 27.1161 46.8546 27.125 47.3288V80.4212C27.1161 80.8954 27.2951 81.3538 27.623 81.6964C27.9508 82.039 28.4009 82.238 28.875 82.25H38.9725C38.7744 81.6827 38.6223 81.1004 38.5175 80.5087C38.5073 80.4274 38.5015 80.3457 38.5 80.2637V73.29C38.5 72.8259 38.6844 72.3807 39.0125 72.0526C39.3407 71.7244 39.7859 71.54 40.25 71.54C40.7141 71.54 41.1592 71.7244 41.4874 72.0526C41.8156 72.3807 42 72.8259 42 73.29V80.1237C42.21 81.27 44.3187 90.58 57.6887 89.075C58.1947 90.3243 58.9142 91.4761 59.815 92.4787H58.7387C57.4394 92.6546 56.1299 92.7452 54.8187 92.75C46.8737 92.75 42.7437 89.075 40.635 85.75H28.875C27.4725 85.7384 26.132 85.1708 25.1476 84.1717C24.1633 83.1726 23.6157 81.8237 23.625 80.4212V47.3288Z" fill="#013299"/>
<path d="M61.25 56C60.0897 56 58.9769 56.4609 58.1564 57.2814C57.3359 58.1019 56.875 59.2147 56.875 60.375C56.875 61.5353 57.3359 62.6481 58.1564 63.4686C58.9769 64.2891 60.0897 64.75 61.25 64.75H84C85.1603 64.75 86.2731 64.2891 87.0936 63.4686C87.9141 62.6481 88.375 61.5353 88.375 60.375C88.375 59.2147 87.9141 58.1019 87.0936 57.2814C86.2731 56.4609 85.1603 56 84 56H61.25Z" fill="#013299"/>
</svg>
