<svg xmlns="http://www.w3.org/2000/svg" viewBox="0 0 24 24" fill="white" class="w-8 h-8 ">
  <path fill="white" d="M23.954 4.569c-.885.389-1.83.654-2.825.775a4.94 4.94 0 002.163-2.723 9.867 9.867 0 01-3.127 1.195 4.924 4.924 0 00-8.388 4.482 13.978 13.978 0 01-10.15-5.144 4.822 4.822 0 001.524 6.573 4.903 4.903 0 01-2.229-.616c-.054 2.28 1.581 4.415 3.946 4.89a4.923 4.923 0 01-2.224.085 4.937 4.937 0 004.604 3.417A9.867 9.867 0 010 21.542a13.944 13.944 0 007.548 2.212c9.056 0 14.012-7.496 14.012-13.986 0-.21-.006-.422-.014-.633A9.936 9.936 0 0024 4.59a9.864 9.864 0 01-2.846.778 4.93 4.93 0 002.16-2.723 9.867 9.867 0 01-3.127 1.195 4.924 4.924 0 00-8.388 4.482z"/>
</svg>
