<svg width="58" height="60" viewBox="0 0 58 60" fill="none" xmlns="http://www.w3.org/2000/svg">
<g filter="url(#filter0_d_235_245)">
<path d="M52.0538 15.8781C50.7991 12.8504 48.9739 10.0984 46.6797 7.77556C44.3924 5.44867 41.6754 3.59865 38.683 2.33052C35.6174 1.02512 32.3237 0.355979 28.9974 0.362845H28.8855C25.5023 0.379808 22.2309 1.05832 19.1496 2.39272C16.1828 3.67386 13.4913 5.52717 11.2255 7.84907C8.95363 10.1667 7.14928 12.9091 5.91301 15.9233C4.62971 19.0578 3.97945 22.4202 4.00049 25.8126C4.01727 29.7367 4.94557 33.6324 6.67913 37.1155V45.7099C6.67913 47.1461 7.83111 48.3109 9.24593 48.3109H17.7348C21.1956 50.0766 25.0147 51.0057 28.8911 51.0249H29.0086C32.3527 51.0249 35.5905 50.369 38.6438 49.0855C41.6212 47.8325 44.328 46.0041 46.6126 43.7027C48.9166 41.3901 50.7285 38.6873 51.9979 35.6736C53.312 32.5525 53.9831 29.2334 53.9999 25.807C54.011 22.3635 53.3512 19.0219 52.0538 15.8781ZM17.8355 28.4079C16.3591 28.4079 15.1568 27.1922 15.1568 25.6939C15.1568 24.1955 16.3591 22.9798 17.8355 22.9798C19.3118 22.9798 20.5141 24.1955 20.5141 25.6939C20.5141 27.1922 19.3174 28.4079 17.8355 28.4079ZM28.9974 28.4079C27.5211 28.4079 26.3187 27.1922 26.3187 25.6939C26.3187 24.1955 27.5211 22.9798 28.9974 22.9798C30.4737 22.9798 31.676 24.1955 31.676 25.6939C31.676 27.1922 30.4737 28.4079 28.9974 28.4079ZM40.1593 28.4079C38.683 28.4079 37.4807 27.1922 37.4807 25.6939C37.4807 24.1955 38.683 22.9798 40.1593 22.9798C41.6356 22.9798 42.8379 24.1955 42.8379 25.6939C42.8379 27.1922 41.6356 28.4079 40.1593 28.4079Z" fill="#00CCFF"/>
</g>
<defs>
<filter id="filter0_d_235_245" x="0" y="0.362793" width="58" height="58.6621" filterUnits="userSpaceOnUse" color-interpolation-filters="sRGB">
<feFlood flood-opacity="0" result="BackgroundImageFix"/>
<feColorMatrix in="SourceAlpha" type="matrix" values="0 0 0 0 0 0 0 0 0 0 0 0 0 0 0 0 0 0 127 0" result="hardAlpha"/>
<feOffset dy="4"/>
<feGaussianBlur stdDeviation="2"/>
<feComposite in2="hardAlpha" operator="out"/>
<feColorMatrix type="matrix" values="0 0 0 0 0 0 0 0 0 0 0 0 0 0 0 0 0 0 0.25 0"/>
<feBlend mode="normal" in2="BackgroundImageFix" result="effect1_dropShadow_235_245"/>
<feBlend mode="normal" in="SourceGraphic" in2="effect1_dropShadow_235_245" result="shape"/>
</filter>
</defs>
</svg>
