<svg width="31" height="36" viewBox="0 0 31 36" fill="none" xmlns="http://www.w3.org/2000/svg">
<g clip-path="url(#clip0_235_305)">
<path d="M9.63964 12.147L9.8463 12.129C9.92113 12.1206 9.9927 12.0933 10.0544 12.0495L10.053 12.051C10.2508 12.744 10.4929 13.473 10.7955 14.2365C11.1837 15.2355 11.5661 16.056 11.9942 16.848L11.9351 16.728C11.8997 17.274 11.8569 17.835 11.8008 18.378C11.7762 18.6984 11.7122 19.0143 11.6103 19.3185L11.6177 19.2915C11.6 19.299 11.5749 22.4115 11.5749 22.4115C11.5755 23.3773 11.8958 24.3148 12.4844 25.0731C13.0729 25.8314 13.8955 26.3664 14.8196 26.592L14.8491 26.598C14.8902 26.4897 14.9624 26.3966 15.0565 26.3307C15.1505 26.2649 15.2619 26.2294 15.3761 26.229H16.2234C16.3366 26.2306 16.4468 26.266 16.5403 26.3308C16.6337 26.3956 16.7063 26.487 16.749 26.5935L16.7504 26.598C17.6824 26.3791 18.5144 25.8469 19.1116 25.0877C19.7087 24.3284 20.0362 23.3865 20.0409 22.4145C20.0409 22.4145 19.9892 19.314 19.9626 19.293C19.8747 19.0031 19.8143 18.7052 19.7825 18.4035L19.7811 18.381C19.7294 17.835 19.6954 17.2875 19.6467 16.731C20.0113 16.062 20.3937 15.243 20.7303 14.3985L20.7864 14.2395C21.089 13.476 21.3237 12.7485 21.5289 12.054C21.5895 12.0978 21.6601 12.1251 21.7341 12.1335H21.7355L21.9437 12.1515C22.1946 12.1785 22.4161 11.9685 22.4367 11.643L22.6611 8.74653V8.74353C22.661 8.62697 22.6191 8.51445 22.5433 8.42695C22.4675 8.33945 22.363 8.28297 22.2493 8.26803H22.2212C22.4178 6.75977 22.296 5.22625 21.864 3.76953L21.8832 3.84603C21.4668 2.90661 20.8335 2.08312 20.0371 1.44544C19.2407 0.807754 18.3047 0.374703 17.3084 0.183033L17.2701 0.177033C16.7871 0.0786303 16.2966 0.0224251 15.8042 0.0090332H15.7732C15.2581 0.0184069 14.745 0.0776751 14.2409 0.186033L14.2941 0.177033C13.2983 0.364834 12.3614 0.79227 11.5616 1.42356C10.7619 2.05486 10.1225 2.87163 9.69721 3.80553L9.68097 3.84603C9.25597 5.29714 9.1427 6.82408 9.34883 8.32353L9.34292 8.26803C9.22886 8.28058 9.12334 8.33539 9.04654 8.42201C8.96975 8.50862 8.92706 8.62095 8.92664 8.73753V8.74803L9.15102 11.6445C9.17168 11.9775 9.39606 12.1785 9.63816 12.1515L9.63964 12.147Z" fill="#0C0C0C"/>
<path d="M31.6143 31.317C31.511 26.757 31.0622 25.725 30.8201 25.026C30.7242 24.7455 30.646 22.8495 27.5637 21.6195C25.6741 20.8635 23.2355 20.8485 21.1718 19.962V22.428C21.1696 23.6922 20.7349 24.9163 19.942 25.8906C19.1491 26.8648 18.0475 27.5285 16.8259 27.768L16.7919 27.774C16.7698 27.9071 16.7024 28.028 16.6015 28.1157C16.5006 28.2034 16.3726 28.2524 16.2398 28.254H16.2132V30.114C16.2132 30.9868 16.5545 31.8239 17.1618 32.4411C17.7692 33.0583 18.593 33.405 19.452 33.405C20.311 33.405 21.1348 33.0583 21.7422 32.4411C22.3495 31.8239 22.6908 30.9868 22.6908 30.114V28.815C22.2449 28.7486 21.8385 28.5184 21.5484 28.1681C21.2583 27.8178 21.1046 27.3716 21.1164 26.9138C21.1282 26.4561 21.3047 26.0187 21.6124 25.6843C21.9202 25.3498 22.3379 25.1416 22.7865 25.099C23.2351 25.0563 23.6836 25.1822 24.047 25.4529C24.4105 25.7235 24.6637 26.1201 24.7588 26.5676C24.8539 27.0152 24.7844 27.4826 24.5632 27.8816C24.3421 28.2805 23.9847 28.5832 23.5588 28.7325L23.5455 28.737V30.1845C23.5455 31.2881 23.114 32.3465 22.3461 33.1268C21.5781 33.9071 20.5366 34.3455 19.4505 34.3455C18.3645 34.3455 17.3229 33.9071 16.555 33.1268C15.787 32.3465 15.3556 31.2881 15.3556 30.1845V30.1095V30.1125V28.236C15.2292 28.2273 15.1094 28.1754 15.0156 28.0888C14.9218 28.0023 14.8596 27.886 14.8389 27.759V27.756C13.6159 27.519 12.5121 26.8573 11.7166 25.8842C10.921 24.911 10.4833 23.6871 10.4782 22.422V19.9365C8.40567 20.841 5.95224 20.859 4.05238 21.6165C0.961238 22.845 0.890381 24.7365 0.795905 25.0215C0.559714 25.7235 0.105048 26.751 0.00171455 31.314C-0.0159997 31.914 0.00171463 32.8335 1.782 33.6375C5.65848 35.1825 10.6524 35.6625 15.5755 36.0075H16.0479C20.9813 35.6655 25.9679 35.187 29.8414 33.6375C31.6143 32.838 31.6306 31.923 31.6143 31.317ZM9.94238 29.457H8.10305V31.3335H6.78924V29.463H4.9499V28.128H6.78924V26.259H8.10305V28.128H9.94238V29.457Z" fill="#0C0C0C"/>
<path d="M23.9513 26.9475C23.9511 26.6798 23.8463 26.4217 23.6599 26.2325C23.4736 26.0434 23.2209 25.9372 22.9575 25.9373C22.694 25.9374 22.4414 26.0438 22.2552 26.2331C22.069 26.4224 21.9644 26.6791 21.9644 26.9468C21.9644 27.2144 22.069 27.4711 22.2552 27.6604C22.4414 27.8498 22.694 27.9562 22.9575 27.9563C23.2209 27.9564 23.4736 27.8501 23.6599 27.661C23.8463 27.4718 23.9511 27.2152 23.9513 26.9475Z" fill="#0C0C0C"/>
</g>
<defs>
<clipPath id="clip0_235_305">
<rect width="31" height="36" fill="white"/>
</clipPath>
</defs>
</svg>
