<svg width="31" height="36" viewBox="0 0 31 36" fill="none" xmlns="http://www.w3.org/2000/svg">
<path d="M29.931 33H28.8621V18C28.8621 17.2044 28.6368 16.4413 28.2359 15.8787C27.8349 15.3161 27.2912 15 26.7241 15H19.2414V3C19.2414 2.20435 19.0161 1.44129 18.6152 0.87868C18.2143 0.31607 17.6705 0 17.1034 0H4.27586C3.70885 0 3.16506 0.31607 2.76412 0.87868C2.36318 1.44129 2.13793 2.20435 2.13793 3V33H1.06897C0.785458 33 0.513563 33.158 0.313093 33.4393C0.112623 33.7206 0 34.1022 0 34.5C0 34.8978 0.112623 35.2794 0.313093 35.5607C0.513563 35.842 0.785458 36 1.06897 36H29.931C30.2145 36 30.4864 35.842 30.6869 35.5607C30.8874 35.2794 31 34.8978 31 34.5C31 34.1022 30.8874 33.7206 30.6869 33.4393C30.4864 33.158 30.2145 33 29.931 33ZM13.8966 33H7.48276V24H13.8966V33ZM13.8966 13.5H11.7586V16.5C11.7586 16.8978 11.646 17.2794 11.4455 17.5607C11.2451 17.842 10.9732 18 10.6897 18C10.4061 18 10.1343 17.842 9.93378 17.5607C9.73331 17.2794 9.62069 16.8978 9.62069 16.5V13.5H7.48276C7.19925 13.5 6.92736 13.342 6.72689 13.0607C6.52642 12.7794 6.41379 12.3978 6.41379 12C6.41379 11.6022 6.52642 11.2206 6.72689 10.9393C6.92736 10.658 7.19925 10.5 7.48276 10.5H9.62069V7.5C9.62069 7.10218 9.73331 6.72064 9.93378 6.43934C10.1343 6.15804 10.4061 6 10.6897 6C10.9732 6 11.2451 6.15804 11.4455 6.43934C11.646 6.72064 11.7586 7.10218 11.7586 7.5V10.5H13.8966C14.1801 10.5 14.452 10.658 14.6524 10.9393C14.8529 11.2206 14.9655 11.6022 14.9655 12C14.9655 12.3978 14.8529 12.7794 14.6524 13.0607C14.452 13.342 14.1801 13.5 13.8966 13.5ZM26.7241 33H19.2414V18H26.7241V33Z" fill="#0C0C0C"/>
</svg>
