<svg width="32" height="36" viewBox="0 0 32 36" fill="none" xmlns="http://www.w3.org/2000/svg">
<path d="M15.5305 0C11.413 0.00440591 7.46561 1.48995 4.55414 4.13077C1.64267 6.77159 0.00486721 10.352 9.74773e-06 14.0867C-0.00377592 17.1385 1.0952 20.1074 3.12869 22.5388C3.12869 22.5388 3.55225 23.0446 3.62143 23.1176L15.5305 35.8571L27.4451 23.1112C27.5073 23.0433 27.9322 22.5388 27.9322 22.5388L27.9336 22.5349C29.9657 20.1044 31.0642 17.1371 31.0609 14.0867C31.056 10.352 29.4182 6.77159 26.5068 4.13077C23.5953 1.48995 19.6479 0.00440591 15.5305 0ZM16.9423 20.4898H14.1186V17.9286H16.9423V20.4898ZM16.9423 15.3673H14.1186V12.8061H16.9423V15.3673ZM22.5898 20.4898H19.766V10.2449H11.2949V20.4898H8.47116V10.2449C8.47116 9.56562 8.76866 8.91416 9.29821 8.43384C9.82776 7.95351 10.546 7.68367 11.2949 7.68367H19.766C20.5149 7.68367 21.2332 7.95351 21.7627 8.43384C22.2923 8.91416 22.5898 9.56562 22.5898 10.2449V20.4898Z" fill="#0C0C0C"/>
</svg>
