<svg width="31" height="35" viewBox="0 0 31 35" fill="none" xmlns="http://www.w3.org/2000/svg">
<path fill-rule="evenodd" clip-rule="evenodd" d="M23.221 1.56968L18.324 9.64141H25.9954L28.6926 5.27718C29.1602 4.51387 29.3202 3.58651 29.1376 2.69912C28.9549 1.81172 28.4444 1.03699 27.7185 0.545342C26.9926 0.0536963 26.1106 -0.114586 25.2667 0.0775145C24.4228 0.269615 23.6885 0.806363 23.221 1.56968ZM0.736974 21.9178L0.0153767 15.1673C-0.023485 14.8015 0.0115162 14.4311 0.118093 14.0804C0.22467 13.7298 0.400422 13.4067 0.633864 13.1323C0.867306 12.858 1.15318 12.6385 1.47281 12.4883C1.79243 12.338 2.13861 12.2604 2.48871 12.2605H28.511C28.8613 12.2604 29.2078 12.3381 29.5276 12.4884C29.8474 12.6388 30.1334 12.8586 30.3669 13.1332C30.6004 13.4079 30.7761 13.7313 30.8825 14.0823C30.9889 14.4332 31.0236 14.8039 30.9843 15.17L30.2627 21.9204C30.0846 23.5893 29.527 25.1886 28.637 26.5831C27.7469 27.9776 26.5507 29.1262 25.1494 29.9319C25.5375 30.7352 25.8112 31.6143 25.9456 32.5484C25.9889 32.8524 25.9694 33.1626 25.8882 33.4579C25.807 33.7531 25.6662 34.0265 25.4753 34.2593C25.2844 34.492 25.048 34.6787 24.7821 34.8066C24.5163 34.9344 24.2274 35.0004 23.9351 35H7.06464C6.77233 35.0004 6.48339 34.9344 6.21757 34.8066C5.95175 34.6787 5.71532 34.492 5.52443 34.2593C5.33354 34.0265 5.19269 33.7531 5.11152 33.4579C5.03035 33.1626 5.01077 32.8524 5.05412 32.5484C5.18334 31.6367 5.45225 30.7531 5.85036 29.9319C4.44871 29.126 3.25226 27.9769 2.36221 26.582C1.47217 25.187 0.914704 23.5872 0.736974 21.9178ZM17.055 18.5818C17.055 18.1481 16.8912 17.7322 16.5995 17.4255C16.3079 17.1188 15.9123 16.9465 15.4999 16.9465C15.0874 16.9465 14.6918 17.1188 14.4002 17.4255C14.1085 17.7322 13.9447 18.1481 13.9447 18.5818V21.9937H10.7C10.2875 21.9937 9.89198 22.1659 9.60033 22.4726C9.30867 22.7793 9.14483 23.1952 9.14483 23.6289C9.14483 24.0626 9.30867 24.4786 9.60033 24.7852C9.89198 25.0919 10.2875 25.2642 10.7 25.2642H13.9447V28.6787C13.9447 29.1124 14.1085 29.5283 14.4002 29.835C14.6918 30.1417 15.0874 30.3139 15.4999 30.3139C15.9123 30.3139 16.3079 30.1417 16.5995 29.835C16.8912 29.5283 17.055 29.1124 17.055 28.6787V25.2668H20.2997C20.7122 25.2668 21.1077 25.0945 21.3994 24.7879C21.691 24.4812 21.8549 24.0653 21.8549 23.6315C21.8549 23.1978 21.691 22.7819 21.3994 22.4752C21.1077 22.1686 20.7122 21.9963 20.2997 21.9963H17.055V18.5766V18.5818Z" fill="#0C0C0C"/>
</svg>
