<svg width="31" height="36" viewBox="0 0 31 36" fill="none" xmlns="http://www.w3.org/2000/svg">
<path fill-rule="evenodd" clip-rule="evenodd" d="M15.5 3.6C13.3312 3.59954 11.2002 4.25968 9.31972 5.51453C7.43925 6.76938 5.87508 8.57505 4.78334 10.7513C3.69159 12.9276 3.11046 15.3983 3.09795 17.9169C3.08543 20.4355 3.64197 22.9138 4.71201 25.1046C5.43526 24.013 6.36498 23.1292 7.42929 22.5215C8.49361 21.9139 9.66401 21.5985 10.85 21.6H20.15C21.336 21.5985 22.5064 21.9139 23.5707 22.5215C24.635 23.1292 25.5647 24.013 26.288 25.1046C27.358 22.9138 27.9146 20.4355 27.9021 17.9169C27.8895 15.3983 27.3084 12.9276 26.2167 10.7513C25.1249 8.57505 23.5608 6.76938 21.6803 5.51453C19.7998 4.25968 17.6688 3.59954 15.5 3.6ZM27.8116 28.9368C29.884 25.7993 31.005 21.9542 31 18C31 8.05859 24.0606 0 15.5 0C6.93936 0 1.74425e-05 8.05859 1.74425e-05 18C-0.00509978 21.9542 1.11587 25.7994 3.18836 28.9368L3.18061 28.9692L3.73086 29.7126C5.18458 31.6863 6.98956 33.2705 9.02137 34.3559C11.0532 35.4414 13.2635 36.0023 15.5 36C18.6424 36.0067 21.7115 34.8982 24.2962 32.823C25.3982 31.9388 26.3974 30.8934 27.2691 29.7126L27.8194 28.9692L27.8116 28.9368ZM15.5 7.19999C14.2667 7.19999 13.084 7.76892 12.212 8.78162C11.3399 9.79431 10.85 11.1678 10.85 12.6C10.85 14.0322 11.3399 15.4057 12.212 16.4184C13.084 17.4311 14.2667 18 15.5 18C16.7333 18 17.916 17.4311 18.788 16.4184C19.6601 15.4057 20.15 14.0322 20.15 12.6C20.15 11.1678 19.6601 9.79431 18.788 8.78162C17.916 7.76892 16.7333 7.19999 15.5 7.19999Z" fill="#0C0C0C"/>
</svg>
