<svg width="42" height="39" viewBox="0 0 42 39" fill="none" xmlns="http://www.w3.org/2000/svg">
<path d="M20.8229 38.1002C32.1947 38.1002 41.6467 29.4716 41.6467 19.0501C41.6467 8.64689 32.1738 0 20.802 0C9.41103 0 0 8.64689 0 19.0501C0 29.4716 9.43106 38.1002 20.8229 38.1002ZM10.8396 16.9766C10.8396 13.0361 14.3718 9.80475 18.6992 9.80475C23.0075 9.80475 26.5388 13.0361 26.5388 16.9766C26.5472 18.4585 26.0395 19.9042 25.0894 21.1044L30.1938 25.7741C30.4796 26.0355 30.6634 26.3901 30.6634 26.7447C30.6634 27.5296 30.071 28.0707 29.2749 28.0707C28.8054 28.0707 28.4177 27.94 28.0292 27.5846L22.9866 22.9723C21.7173 23.7482 20.2258 24.164 18.6992 24.1676C14.3718 24.1676 10.8396 20.9363 10.8396 16.9766ZM13.1052 16.9766C13.1052 19.7784 15.6374 22.0941 18.6992 22.0941C21.7218 22.0941 24.2523 19.7784 24.2523 16.9766C24.2523 14.2131 21.721 11.8965 18.6992 11.8965C15.6374 11.8965 13.1052 14.2131 13.1052 16.9766Z" fill="#013299"/>
</svg>
