<svg width="503" height="444" viewBox="0 0 503 444" fill="none" xmlns="http://www.w3.org/2000/svg">
<path fill-rule="evenodd" clip-rule="evenodd" d="M250.99 52.4532C304.938 41.6084 359.112 -21.599 405.652 7.66328C451.079 36.226 409.797 112.053 426.612 162.877C443.553 214.08 507.243 247.489 502.776 301.218C498.194 356.343 453.097 403.485 404.402 430.065C358.358 455.197 303.493 438.664 250.99 438.651C198.505 438.637 143.604 455.217 97.6361 429.986C49.1029 403.346 2.78497 356.068 0.0851204 300.933C-2.57522 246.605 57.812 213.237 84.7043 165.899C104.272 131.454 103.101 84.2571 135.88 61.8938C168.442 39.6795 212.304 60.2299 250.99 52.4532Z" fill="#013299" fill-opacity="0.12"/>
</svg>
