<svg width="31" height="36" viewBox="0 0 31 36" fill="none" xmlns="http://www.w3.org/2000/svg">
<path d="M13.2857 2.57143H17.7143C18.8888 2.57143 20.0152 3.11326 20.8458 4.07774C21.6763 5.04221 22.1429 6.35032 22.1429 7.71429V28.2857C22.1429 29.6497 21.6763 30.9578 20.8458 31.9223C20.0152 32.8867 18.8888 33.4286 17.7143 33.4286H13.2857C12.1112 33.4286 10.9848 32.8867 10.1542 31.9223C9.32372 30.9578 8.85714 29.6497 8.85714 28.2857V7.71429C8.85714 6.35032 9.32372 5.04221 10.1542 4.07774C10.9848 3.11326 12.1112 2.57143 13.2857 2.57143ZM1.10714 0C1.40078 0 1.68238 0.135459 1.89001 0.376577C2.09764 0.617695 2.21429 0.944722 2.21429 1.28571V34.7143C2.21429 35.0553 2.09764 35.3823 1.89001 35.6234C1.68238 35.8645 1.40078 36 1.10714 36C0.81351 36 0.531904 35.8645 0.324275 35.6234C0.116645 35.3823 0 35.0553 0 34.7143V1.28571C0 0.944722 0.116645 0.617695 0.324275 0.376577C0.531904 0.135459 0.81351 0 1.10714 0ZM29.8929 0C30.1865 0 30.4681 0.135459 30.6757 0.376577C30.8834 0.617695 31 0.944722 31 1.28571V34.7143C31 35.0553 30.8834 35.3823 30.6757 35.6234C30.4681 35.8645 30.1865 36 29.8929 36C29.5992 36 29.3176 35.8645 29.11 35.6234C28.9024 35.3823 28.7857 35.0553 28.7857 34.7143V1.28571C28.7857 0.944722 28.9024 0.617695 29.11 0.376577C29.3176 0.135459 29.5992 0 29.8929 0Z" fill="#0C0C0C"/>
</svg>
